<svg width="189" height="119" viewBox="0 0 189 119" fill="none" xmlns="http://www.w3.org/2000/svg">
<path d="M152.7 24L153 25L152.3 25.8L151.6 25L151.9 24.4L152.7 24ZM156.5 24.9V25.7L155.8 25.6L155.5 25.1L155.9 24.3L156.5 24.9ZM139.4 24.8L140.2 25.7L139.7 26.9L138.7 26.4L138.2 25.4L139.4 24.8ZM150.5 25.3C151.1 25.7 151.333 26.3 151.2 27.1C151.067 27.5 150.867 27.7 150.6 27.7C150.4 27.6333 150.1 27.6333 149.7 27.7C149.367 27.7 149.1 27.7333 148.9 27.8C148.7 27.8 148.533 27.6333 148.4 27.3C148.2 26.9 148.367 26.4667 148.9 26C149.167 25.7333 149.4 25.5 149.6 25.3C149.8 25.1 150.1 25.1 150.5 25.3ZM145 26.2C145.4 26.6667 145.733 27.0333 146 27.3C146.333 27.5667 146.3 27.9667 145.9 28.5C145.567 28.9667 145.2 29.1333 144.8 29C144.467 28.8 144 28.6 143.4 28.4C142.8 28.2 142.5 27.7333 142.5 27C142.5 26.2667 142.8 25.8 143.4 25.6C144.067 25.4 144.6 25.6 145 26.2ZM165 25.9L164.3 26.5L163.7 26.3L163.6 25.7L164.2 25.5L165 25.9ZM137.2 26.2L137.1 27.2L136.5 27.9L135.9 27L136.3 26.4L137.2 26.2ZM161.8 27.3C162.267 27.7 162.633 28.0333 162.9 28.3C163.167 28.5667 163.167 29 162.9 29.6C162.633 30.2 162.3 30.5 161.9 30.5C161.567 30.5 161.067 30.4667 160.4 30.4C159.8 30.3333 159.333 30.2333 159 30.1C158.733 29.9667 158.533 29.6333 158.4 29.1C158.267 28.4333 158.233 27.9333 158.3 27.6C158.433 27.2 158.8 26.8333 159.4 26.5C159.933 26.1667 160.333 26.1 160.6 26.3C160.933 26.5 161.333 26.8333 161.8 27.3ZM154.7 27C155.233 27.0667 155.533 27.2667 155.6 27.6C155.733 27.8667 155.833 28.3 155.9 28.9C155.967 29.4333 155.967 29.8667 155.9 30.2C155.833 30.4667 155.533 30.7 155 30.9C154.467 31.1667 154.033 31.2333 153.7 31.1C153.433 30.9667 153.133 30.6667 152.8 30.2C152.467 29.8667 152.367 29.6 152.5 29.4C152.7 29.1333 152.933 28.8 153.2 28.4C153.467 27.9333 153.633 27.5667 153.7 27.3C153.833 26.9667 154.167 26.8667 154.7 27ZM134.5 27.9L134.2 28.5L133.5 28.6L133.1 27.8L133.9 27.3L134.5 27.9ZM167.6 27.9C167.867 28.2333 167.9 28.5 167.7 28.7C167.5 28.8333 167.267 29.0667 167 29.4C166.8 29.6 166.633 29.7667 166.5 29.9C166.367 30.0333 166.167 30.0333 165.9 29.9C165.233 29.7 164.9 29.3333 164.9 28.8C164.9 28.4 165 28.1667 165.2 28.1C165.4 28.0333 165.667 27.9333 166 27.8C166.4 27.7333 166.7 27.6667 166.9 27.6C167.167 27.4667 167.4 27.5667 167.6 27.9ZM139.5 28.8C139.967 29.1333 140.133 29.5667 140 30.1C139.8 30.8333 139.4 31.2 138.8 31.2C138.467 31.2 138.267 31.1 138.2 30.9C138.2 30.7 138.133 30.4333 138 30.1C137.933 29.7667 137.833 29.5333 137.7 29.4C137.633 29.2 137.733 29 138 28.8C138.467 28.4667 138.967 28.4667 139.5 28.8ZM171.5 28.7L172 29.4L171.5 29.9H170.7V29L171.5 28.7ZM131.4 29.9C131.8 30.6333 131.7 31.2667 131.1 31.8C130.7 32.1333 130.367 32.3 130.1 32.3C129.9 32.3 129.6 32.1667 129.2 31.9C128.8 31.7 128.6 31.5 128.6 31.3C128.6 31.1 128.633 30.8 128.7 30.4C128.833 29.9333 128.9 29.5667 128.9 29.3C128.967 29.0333 129.233 28.8667 129.7 28.8C130.5 28.7333 131.067 29.1 131.4 29.9ZM147.2 29.4V30L146.3 29.7L146.6 28.9L147.2 29.4ZM133.5 29.8L133.2 30.4L132.6 30.5L132.2 29.8L132.8 29.4L133.5 29.8ZM169.3 30L169.7 30.9L168.9 31.4L168.4 30.7L168.3 29.8L169.3 30ZM145.4 31.3L144.7 32.5L143.5 32.3V31.3L144.2 30.5L145.4 31.3ZM171.9 30.9L172.5 31.7L172.1 32.4H171.2L170.8 31.3L171.9 30.9ZM150.3 31.5L150.7 32.6L149.5 32.7L148.9 32.1L149.3 31.1L150.3 31.5ZM163.7 31.6L163.4 32.3L162.8 32.2L162.4 31.6L163.1 31.1L163.7 31.6ZM134.7 31.6C135.233 31.8 135.433 32.1 135.3 32.5C135.167 32.9 135.1 33.3667 135.1 33.9C135.1 34.4333 135.133 34.9 135.2 35.3C135.267 35.6333 135.033 35.8667 134.5 36C133.967 36.1333 133.6 36.0667 133.4 35.8C133.267 35.5333 133.033 35.1667 132.7 34.7C132.433 34.2333 132.2 33.8667 132 33.6C131.867 33.3333 131.933 33 132.2 32.6C132.667 32.0667 133.033 31.7333 133.3 31.6C133.633 31.4 134.1 31.4 134.7 31.6ZM175.7 33C175.767 33.3333 175.8 33.6333 175.8 33.9C175.867 34.1 175.733 34.2667 175.4 34.4C175.067 34.6 174.8 34.6667 174.6 34.6C174.467 34.4667 174.233 34.2667 173.9 34C173.433 33.5333 173.3 33.1 173.5 32.7C173.7 32.2333 173.867 31.9 174 31.7C174.133 31.5 174.433 31.4333 174.9 31.5C175.3 31.5667 175.5 31.7333 175.5 32C175.567 32.2667 175.633 32.6 175.7 33ZM147.7 31.9L147.8 32.7L147 33.2L146.4 32.3L147 31.8L147.7 31.9ZM138.7 31.9L138.9 32.9L138.5 33.8L137.4 33.3L137.7 32.3L138.7 31.9ZM141.8 32.3L141.7 33.5L141.1 34.4L140.1 33.6L140.5 32.5L141.8 32.3ZM169.9 33.3C170.567 33.8333 171 34.3 171.2 34.7C171.467 35.0333 171.467 35.6333 171.2 36.5C171 37.2333 170.667 37.6667 170.2 37.8C169.733 37.9333 169.1 38 168.3 38C167.567 38 167 37.9 166.6 37.7C166.267 37.5 165.967 37.0333 165.7 36.3C165.5 35.5667 165.467 35 165.6 34.6C165.733 34.2 166.1 33.7667 166.7 33.3C167.367 32.8333 167.9 32.6 168.3 32.6C168.7 32.6 169.233 32.8333 169.9 33.3ZM159.7 34.3C160.3 34.9667 160.633 35.5333 160.7 36C160.833 36.4 160.7 36.9333 160.3 37.6C159.7 38.6 159.233 39.4 158.9 40C158.567 40.5333 157.833 40.6667 156.7 40.4C155.567 40.1333 154.9 39.7 154.7 39.1C154.567 38.4333 154.433 37.5333 154.3 36.4C154.233 35.4667 154.367 34.8 154.7 34.4C155.033 34 155.633 33.6 156.5 33.2C157.3 32.8667 157.9 32.8333 158.3 33.1C158.7 33.3 159.167 33.7 159.7 34.3ZM151.4 33.5L151.8 34.2L151.5 35.2L150.6 34.6V33.7L151.4 33.5ZM130.1 34.1L130.2 35L129.5 35.5L128.8 34.9L129.2 34L130.1 34.1ZM126.9 34.5C127.233 34.8333 127.433 35.1333 127.5 35.4C127.633 35.6 127.6 35.9333 127.4 36.4C127.133 36.8 126.867 36.9667 126.6 36.9C126.333 36.8333 126 36.7667 125.6 36.7C125.133 36.6333 124.767 36.5667 124.5 36.5C124.3 36.4333 124.167 36.1667 124.1 35.7C124.033 35.3 124.1 35.0333 124.3 34.9C124.567 34.7667 124.9 34.6 125.3 34.4C125.633 34.2667 125.9 34.1667 126.1 34.1C126.367 34.0333 126.633 34.1667 126.9 34.5ZM178.8 35.2L179 36.1L178.1 36.4L177.6 35.6L178 34.7L178.8 35.2ZM139.4 35.1L139.9 36.1L139 37L138 36.3L138.3 35.2L139.4 35.1ZM150.3 38C150.367 38.9333 150.233 39.6 149.9 40C149.567 40.3333 148.967 40.7 148.1 41.1C147.367 41.4333 146.833 41.4333 146.5 41.1C146.233 40.7667 145.833 40.3333 145.3 39.8C144.833 39.2 144.433 38.7333 144.1 38.4C143.767 38.0667 143.8 37.5667 144.2 36.9C144.6 36.1 145 35.6 145.4 35.4C145.867 35.1333 146.533 35.1 147.4 35.3C148.4 35.4333 149.1 35.6667 149.5 36C149.9 36.3333 150.167 37 150.3 38ZM138.1 38.6C139.233 39.6667 139.7 40.6333 139.5 41.5C139.3 42.3 138.867 43.4 138.2 44.8C137.6 46 137 46.7667 136.4 47.1C135.8 47.4333 134.867 47.5333 133.6 47.4C132.2 47.2 131.167 46.9 130.5 46.5C129.9 46.1 129.467 45.2333 129.2 43.9C128.933 42.3667 128.933 41.2333 129.2 40.5C129.467 39.7667 130.267 39.0667 131.6 38.4C133 37.6 134.133 37.1667 135 37.1C135.867 36.9667 136.9 37.4667 138.1 38.6ZM124.4 39C124.467 39.4667 124.5 39.8667 124.5 40.2C124.567 40.4667 124.367 40.7 123.9 40.9C123.433 41.1 123.133 41.0667 123 40.8C122.867 40.5333 122.633 40.2 122.3 39.8C122.033 39.5333 121.833 39.3333 121.7 39.2C121.633 39 121.7 38.7333 121.9 38.4C122.167 37.9333 122.367 37.6 122.5 37.4C122.7 37.1333 123.033 37.0333 123.5 37.1C124.033 37.2333 124.3 37.4667 124.3 37.8C124.3 38.0667 124.333 38.4667 124.4 39ZM178.8 38.3C179.067 38.8333 179.133 39.2333 179 39.5C178.933 39.7667 178.7 40.0667 178.3 40.4C177.967 40.7333 177.667 40.8333 177.4 40.7C177.2 40.5 176.933 40.3 176.6 40.1C176.2 39.8333 175.867 39.6667 175.6 39.6C175.333 39.4667 175.233 39.1667 175.3 38.7C175.5 37.8333 176.033 37.3667 176.9 37.3C177.433 37.2333 177.833 37.2667 178.1 37.4C178.367 37.5333 178.6 37.8333 178.8 38.3ZM173.9 38L174.3 39.1L173.1 39.6L172.2 38.6L172.9 37.5L173.9 38ZM141.4 38.4L140.8 39.2L139.9 38.9V38L140.7 37.6L141.4 38.4ZM127.7 38.8L127.9 40.3L126.6 40.6L125.9 39.7L126.5 38.9L127.7 38.8ZM164.9 38.9L165.4 39.8L164.8 40.6L163.8 40.4V39.2L164.9 38.9ZM181.8 41.5C181.867 41.9 181.867 42.2333 181.8 42.5C181.8 42.7 181.6 42.9 181.2 43.1C180.533 43.5 179.933 43.4 179.4 42.8C179.067 42.5333 178.9 42.3 178.9 42.1C178.967 41.8333 179.1 41.5 179.3 41.1C179.5 40.7 179.667 40.4 179.8 40.2C180 40 180.333 39.9333 180.8 40C181.2 40.0667 181.433 40.2333 181.5 40.5C181.633 40.7 181.733 41.0333 181.8 41.5ZM152.3 41.2L152 42L151.3 41.7L150.9 41L151.7 40.7L152.3 41.2ZM172.7 40.8C173.1 40.9333 173.4 41.0333 173.6 41.1C173.867 41.1 174 41.3 174 41.7C174 42.1 173.9 42.3667 173.7 42.5C173.567 42.6333 173.3 42.7667 172.9 42.9C172.633 43.0333 172.433 43.0333 172.3 42.9C172.233 42.7667 172.1 42.5667 171.9 42.3C171.7 42.1 171.533 41.9333 171.4 41.8C171.267 41.6667 171.3 41.4667 171.5 41.2C171.7 40.8 172.1 40.6667 172.7 40.8ZM166.7 41.3L167.4 42.2L166.4 42.7L165.5 42.6L165.8 41.6L166.7 41.3ZM169.2 41.3L169.8 42L169.4 42.6L168.5 42.9L168.4 41.9L169.2 41.3ZM142.4 42.4L141.9 43.4L140.9 43.1L140.7 42.1L141.6 41.7L142.4 42.4ZM164.1 42L164.6 43.6L163.3 44.3L162.1 43.5L162.6 42H164.1ZM176 42.3L176.3 43H175.2V42.2L176 42.3ZM157.7 42.9L157.5 44.1L156.1 44.2L155.9 43L156.8 42.2L157.7 42.9ZM160.4 42.8L160.9 43.6L160.6 44.3L160 44.1L159.4 43.3L160.4 42.8ZM145.2 42.9L145.5 44L145.1 45.2L144.1 44.4L144.3 43.6L145.2 42.9ZM126.2 44.4C126.4 45 126.433 45.4667 126.3 45.8C126.167 46.0667 125.833 46.4 125.3 46.8C124.833 47.1333 124.433 47.2667 124.1 47.2C123.833 47.1333 123.467 46.9333 123 46.6C122.333 46.0667 122.133 45.3667 122.4 44.5C122.667 43.7667 123.233 43.4 124.1 43.4C124.7 43.4 125.133 43.4333 125.4 43.5C125.733 43.5667 126 43.8667 126.2 44.4ZM119.8 43.5L120.8 44.3L120.2 45.2H119.4L118.9 44.3L119.8 43.5ZM175.7 46.2C175.767 46.7333 175.667 47.1333 175.4 47.4C175.2 47.6 174.833 47.8333 174.3 48.1C173.7 48.3 173.2 48.4667 172.8 48.6C172.467 48.6667 172.1 48.4333 171.7 47.9C171.3 47.4333 171.167 47.0333 171.3 46.7C171.5 46.3667 171.767 45.9 172.1 45.3C172.433 44.7667 172.7 44.3667 172.9 44.1C173.167 43.7667 173.6 43.7 174.2 43.9C174.867 44.0333 175.267 44.2667 175.4 44.6C175.533 44.9333 175.633 45.4667 175.7 46.2ZM178.4 43.8L179.1 45.1L177.8 45.3L176.5 44.9L177.3 43.8H178.4ZM183.3 44.8C183.633 45.4 183.533 46 183 46.6C182.667 46.9333 182.367 47.1667 182.1 47.3C181.9 47.4333 181.6 47.4 181.2 47.2C180.467 46.9333 180.133 46.3333 180.2 45.4C180.267 44.6 180.7 44.1 181.5 43.9C182.3 43.7667 182.9 44.0667 183.3 44.8ZM141.7 45.1L141.6 46L140.7 45.8L140.1 45L141.1 44.4L141.7 45.1ZM168.8 45.6C169.533 46.0667 169.8 46.5333 169.6 47C169.467 47.4667 169.3 48.0667 169.1 48.8C168.967 49.4667 168.767 49.9333 168.5 50.2C168.3 50.4667 167.867 50.6333 167.2 50.7C166.533 50.7667 166.033 50.7 165.7 50.5C165.433 50.2333 165.2 49.7667 165 49.1C164.733 48.4333 164.567 47.9 164.5 47.5C164.5 47.1 164.8 46.6667 165.4 46.2C166.067 45.6667 166.6 45.3333 167 45.2C167.467 45 168.067 45.1333 168.8 45.6ZM120.2 47.5L119.9 48.5L118.5 48.3L118.6 46.9L119.8 46.5L120.2 47.5ZM178.5 47.5L177.9 48.2L177.2 47.9L177 47L177.9 46.7L178.5 47.5ZM128.2 47L128.9 47.5L128.3 48L127.6 47.9L127.3 47H128.2ZM160.8 47.6L160.6 48.4L159.9 48.3L159.4 47.6L160.2 47.2L160.8 47.6ZM141.4 48.7C141.667 49.2333 141.6 49.7 141.2 50.1C140.8 50.5667 140.3 50.6667 139.7 50.4C139.3 50.1333 138.967 49.9333 138.7 49.8C138.5 49.6667 138.433 49.3667 138.5 48.9C138.633 48.1 139.133 47.6333 140 47.5C140.467 47.4333 140.767 47.5333 140.9 47.8C141.033 48 141.2 48.3 141.4 48.7ZM163.5 48.4L162.9 49.4L161.8 49.3L161.9 48.3L162.6 47.7L163.5 48.4ZM122.4 47.8L123.2 48.6L122.8 49.6L121.9 49.3L121.7 48.6L122.4 47.8ZM131.1 49.3L130.8 50.5L129.5 50.4L129.3 49L130.4 48.7L131.1 49.3ZM179.6 49.1C180.133 49.3 180.433 49.5667 180.5 49.9C180.567 50.1667 180.567 50.6 180.5 51.2C180.433 52.0667 180 52.5667 179.2 52.7C178.667 52.8333 178.233 52.9 177.9 52.9C177.633 52.9 177.367 52.6667 177.1 52.2C176.767 51.6667 176.633 51.2667 176.7 51C176.767 50.6667 176.967 50.3 177.3 49.9C177.7 49.4333 178.033 49.1333 178.3 49C178.633 48.8 179.067 48.8333 179.6 49.1ZM182.6 49.1L182.2 50L181.4 50.2L181 49.3L181.8 49L182.6 49.1ZM126.9 49.9L126.8 50.8L125.8 51V50.1L126.2 49.3L126.9 49.9ZM172.5 49.4L172.3 50.6L171.4 50.4L171 49.8L171.5 49.3L172.5 49.4ZM134.6 49.5C135.133 49.5667 135.433 49.7667 135.5 50.1C135.567 50.4333 135.667 50.8667 135.8 51.4C135.867 51.9333 135.9 52.3667 135.9 52.7C135.967 53.0333 135.767 53.3333 135.3 53.6C134.833 53.8 134.467 53.8 134.2 53.6C134 53.4 133.7 53.1 133.3 52.7C132.967 52.3667 132.733 52.1 132.6 51.9C132.467 51.7 132.5 51.3667 132.7 50.9C132.967 50.3667 133.2 50 133.4 49.8C133.6 49.5333 134 49.4333 134.6 49.5ZM120.9 50.3L120.7 51.5L119.6 52L119 50.8L119.7 49.7L120.9 50.3ZM124 50.5C124.467 50.5667 124.733 50.7333 124.8 51C124.933 51.2 125 51.5 125 51.9C125 52.4333 124.667 52.8333 124 53.1C123.6 53.3 123.2 53.1333 122.8 52.6C122.533 52.2667 122.533 51.9 122.8 51.5C123.067 51.1667 123.233 50.9 123.3 50.7C123.367 50.4333 123.6 50.3667 124 50.5ZM160.4 51.3L160.8 52.4L159.8 52.7L159.2 52.2V51.2L160.4 51.3ZM183 52.1L183.2 52.9L182.5 54L181.3 53L181.9 51.8L183 52.1ZM141 52.2L141.4 53.3L140.2 53.6L139.7 52.7L140.1 51.9L141 52.2ZM169.8 52.1L169.7 53L169 53.7L168.5 52.8L168.8 51.9L169.8 52.1ZM128.9 52L129 52.8L128.5 53.4L127.8 52.9L127.9 52H128.9ZM164.3 52.3C165.167 52.3 165.733 52.7333 166 53.6C166.2 54.2667 166.367 54.8 166.5 55.2C166.7 55.6 166.5 56 165.9 56.4C165.3 56.8 164.833 56.8667 164.5 56.6C164.233 56.3333 163.8 55.9667 163.2 55.5C162.667 55.1 162.233 54.8 161.9 54.6C161.567 54.3333 161.5 53.8667 161.7 53.2C161.967 52.5333 162.3 52.2333 162.7 52.3C163.1 52.3 163.633 52.3 164.3 52.3ZM174.7 53.9C174.967 54.4333 175.167 54.8667 175.3 55.2C175.5 55.5333 175.367 55.9333 174.9 56.4C174.433 56.8667 174.033 57.0333 173.7 56.9C173.367 56.7 172.933 56.4333 172.4 56.1C171.933 55.8333 171.6 55.6 171.4 55.4C171.2 55.2 171.133 54.8333 171.2 54.3C171.333 53.7 171.5 53.3333 171.7 53.2C171.967 53 172.367 52.8667 172.9 52.8C173.7 52.7333 174.3 53.1 174.7 53.9ZM120.7 54.1L120.1 54.8L118.8 55.1L118.7 53.5L120 53L120.7 54.1ZM131.9 54V54.8L131.1 54.6L130.7 54L131.4 53.5L131.9 54ZM181.1 53.9L180.9 54.6L180.4 54.9L179.8 54.5L180.2 53.7L181.1 53.9ZM127.1 54.8L127.4 55.4L127.1 56.1L126.5 55.7L126.2 54.8H127.1ZM134 54.8L134.2 55.8L133.5 56.2L132.7 55.9L133.1 55.1L134 54.8ZM124.4 55.1C124.8 55.5 124.967 55.8333 124.9 56.1C124.9 56.3667 124.8 56.7667 124.6 57.3C124.467 57.6333 124.267 57.8 124 57.8C123.8 57.8 123.467 57.8 123 57.8C122.533 57.8 122.133 57.8333 121.8 57.9C121.533 57.9 121.333 57.6667 121.2 57.2C121.067 56.7333 121.133 56.4333 121.4 56.3C121.667 56.1 122 55.8667 122.4 55.6C122.8 55.3333 123.133 55.1333 123.4 55C123.667 54.8 124 54.8333 124.4 55.1ZM184.1 55.6L183.4 56.5L182.3 56.8L182.1 55.6L183 54.9L184.1 55.6ZM139.8 56.6C140.467 57 140.933 57.3667 141.2 57.7C141.467 58.0333 141.5 58.6 141.3 59.4C141.1 60.3333 140.867 61.0667 140.6 61.6C140.333 62.0667 139.733 62.3333 138.8 62.4C137.733 62.4667 136.967 62.3333 136.5 62C136.1 61.6 135.7 60.9333 135.3 60C134.967 59.0667 134.867 58.3667 135 57.9C135.133 57.3667 135.6 56.8 136.4 56.2C137.067 55.6 137.6 55.4 138 55.6C138.467 55.8 139.067 56.1333 139.8 56.6ZM169.1 55.8L169.9 56.2L169.5 57L168.7 56.9L168.5 56.2L169.1 55.8ZM177.7 57V58.1L176.6 58L176.4 57.2L176.9 56.3L177.7 57ZM160 56.7L160.4 57.5L159.6 57.6L158.8 57.3L159.3 56.3L160 56.7ZM130 56.8C130.4 57 130.733 57.1333 131 57.2C131.333 57.2667 131.467 57.5333 131.4 58C131.267 58.5333 131.067 58.8667 130.8 59C130.6 59.0667 130.233 59.1333 129.7 59.2C129.3 59.2667 129.067 59.2 129 59C128.933 58.8 128.8 58.5 128.6 58.1C128.333 57.5667 128.367 57.1333 128.7 56.8C128.967 56.5333 129.4 56.5333 130 56.8ZM119.7 57.5L119.4 58.2L118.6 58L118.5 57L119.4 56.8L119.7 57.5ZM169.4 59.3C170.667 60.4333 171.367 61.4333 171.5 62.3C171.633 63.1667 171.4 64.3667 170.8 65.9C170.133 67.3667 169.4 68.3 168.6 68.7C167.867 69.1 166.7 69.2333 165.1 69.1C163.7 68.9667 162.867 68.5333 162.6 67.8C162.4 67 162.133 65.9333 161.8 64.6C161.467 63 161.133 61.7333 160.8 60.8C160.467 59.8667 160.967 59 162.3 58.2C163.833 57.2667 165.067 56.9333 166 57.2C166.933 57.4667 168.067 58.1667 169.4 59.3ZM133.8 58L133.4 59L132.1 58.9L132 57.6L133 57.5L133.8 58ZM174.1 59L173.9 60.2L173.2 61L172.5 60.1L172.7 58.8L174.1 59ZM181.2 61.8C181.467 62.6 181.633 63.2333 181.7 63.7C181.833 64.1667 181.567 64.6333 180.9 65.1C179.967 65.7 179.233 66.1 178.7 66.3C178.167 66.5 177.467 66.2667 176.6 65.6C175.8 65 175.533 64.4333 175.8 63.9C176.133 63.3 176.467 62.5333 176.8 61.6C177.133 60.8 177.4 60.2 177.6 59.8C177.8 59.3333 178.333 59.1 179.2 59.1C180.067 59.1 180.567 59.3667 180.7 59.9C180.833 60.3667 181 61 181.2 61.8ZM121 59.8L120.7 60.4L119.8 60.3L120 59.5L120.5 59.2L121 59.8ZM127.5 59.2L127.6 60.2L126.8 60.9L126.1 60.1L126.6 59.3L127.5 59.2ZM124.4 59.8C124.867 60.0667 125.033 60.5333 124.9 61.2C124.767 61.6 124.667 61.9 124.6 62.1C124.533 62.3 124.3 62.4333 123.9 62.5C123.5 62.5667 123.2 62.5 123 62.3C122.867 62.1 122.733 61.8333 122.6 61.5C122.467 61.2333 122.433 61.0333 122.5 60.9C122.633 60.7 122.833 60.5 123.1 60.3C123.367 60.1 123.567 59.9333 123.7 59.8C123.833 59.6 124.067 59.6 124.4 59.8ZM131.6 60.5L131.7 61.5L130.8 61.8L130.5 61L130.8 60.4L131.6 60.5ZM133.1 61.5L133.5 62.1L133 63L132.4 62.4L132.1 61.5H133.1ZM120.8 62.3L120.4 63.5L119.3 63L118.8 62L119.9 61.6L120.8 62.3ZM135.4 61.7L135.6 62.5L135.1 63.2L134.4 62.6L134.6 61.9L135.4 61.7ZM130.7 64.7C130.833 65.5 130.867 66.1333 130.8 66.6C130.8 67 130.433 67.3667 129.7 67.7C128.9 68.1667 128.267 68.3667 127.8 68.3C127.4 68.2333 126.867 67.9 126.2 67.3C125.667 66.7667 125.5 66.3 125.7 65.9C125.967 65.5 126.267 64.9667 126.6 64.3C126.933 63.5667 127.167 63 127.3 62.6C127.5 62.1333 127.967 61.9333 128.7 62C129.567 62.1333 130.067 62.4333 130.2 62.9C130.333 63.3 130.5 63.9 130.7 64.7ZM143.2 63L142.7 63.8L141.9 63.4V62.7L142.5 62.5L143.2 63ZM173.8 63.5L174.8 64.1L174.1 65H173V63.9L173.8 63.5ZM140.4 64.5L140.1 65.3L139.1 65.4L139 64.4L139.7 63.9L140.4 64.5ZM134.6 64.7L134.1 65.6L133.1 65.5L133 64.5L133.8 63.9L134.6 64.7ZM136.9 64.2L137.7 64.8L137.1 65.6L136.2 65.4L136.1 64.5L136.9 64.2ZM124 65.2L123.3 65.9L122.3 66.2L122.2 65L123.1 64.7L124 65.2ZM120.5 66.1L121.1 66.7L120.7 67.4L119.5 67.8V66.4L120.5 66.1ZM175.9 67.8C175.967 68.4667 175.7 68.9333 175.1 69.2C174.7 69.3333 174.367 69.4333 174.1 69.5C173.9 69.5 173.633 69.3333 173.3 69C172.767 68.4 172.7 67.7667 173.1 67.1C173.5 66.3667 174.1 66.0667 174.9 66.2C175.3 66.3333 175.533 66.5333 175.6 66.8C175.733 67 175.833 67.3333 175.9 67.8ZM183.3 67.2L183.9 68.4L182.5 69L181.6 67.8L182.3 66.5L183.3 67.2ZM137.5 66.8L138 67.6L137.1 68.2L136.4 67.7L136.8 67L137.5 66.8ZM135.3 67.9L134.7 68.5L133.8 68.8V67.8L134.5 67.3L135.3 67.9ZM124 67.7L124.1 68.7L123.2 68.8L122.5 68.2L123.1 67.4L124 67.7ZM179.8 67.7L179.7 68.7L178.7 68.8L178.3 68L179 67.6L179.8 67.7ZM140.1 67.8L140.9 69L139.8 70.1L138.7 69.3L139 68.2L140.1 67.8ZM143.1 68.3L143.2 69.3L142.4 69L142.1 68.5L142.5 68L143.1 68.3ZM131.3 69.7L130.8 70.4L129.7 70.6L129.8 69.4L130.7 68.8L131.3 69.7ZM137.4 69.2L137.1 70.1L136.3 70.5L135.6 69.6L136.4 69L137.4 69.2ZM182.3 69.8L182.1 70.8L181.1 70.5L180.7 69.8L181.5 69.3L182.3 69.8ZM170.5 69.3C170.967 69.3 171.267 69.4 171.4 69.6C171.533 69.8 171.667 70.1 171.8 70.5C171.933 70.8333 171.9 71.0667 171.7 71.2C171.5 71.2667 171.267 71.4 171 71.6C170.6 71.8 170.267 71.8 170 71.6C169.6 71.3333 169.467 71 169.6 70.6C169.733 70.2 169.8 69.9 169.8 69.7C169.867 69.4333 170.1 69.3 170.5 69.3ZM121.5 69.8V71.1L120.3 71.2L120 70.4L120.3 69.4L121.5 69.8ZM163.2 71.4C163.333 71.8 163.333 72.1 163.2 72.3C163.133 72.5 162.933 72.7333 162.6 73C162.267 73.2 162 73.2667 161.8 73.2C161.667 73.0667 161.433 72.9 161.1 72.7C160.7 72.4333 160.567 72.0667 160.7 71.6C160.833 71.2667 160.933 71 161 70.8C161.067 70.5333 161.267 70.4 161.6 70.4C162.4 70.4 162.933 70.7333 163.2 71.4ZM135 71.1L134.6 71.7L133.8 72L133.7 71.1L134.3 70.7L135 71.1ZM179.6 74.5C180.2 75.5 180.633 76.3333 180.9 77C181.233 77.6 181 78.3667 180.2 79.3C179.333 80.3 178.567 80.9 177.9 81.1C177.233 81.2333 176.267 81.0667 175 80.6C173.8 80.1333 173.1 79.5667 172.9 78.9C172.7 78.2333 172.633 77.2667 172.7 76C172.833 74.6 172.933 73.5 173 72.7C173.133 71.8333 173.9 71.2333 175.3 70.9C176.7 70.5667 177.567 70.8 177.9 71.6C178.3 72.3333 178.867 73.3 179.6 74.5ZM182.9 71.4L183.2 72.3L182.6 72.9L181.8 72.6L181.9 71.6L182.9 71.4ZM167 71.7L167.3 72.8L166.3 72.9L165.8 72.4L166.2 71.9L167 71.7ZM126.8 72.4C127.6 72.4667 128.167 72.6 128.5 72.8C128.9 73 129.167 73.5 129.3 74.3C129.567 75.4333 129.8 76.3333 130 77C130.2 77.6667 129.8 78.3 128.8 78.9C127.6 79.5667 126.633 79.9 125.9 79.9C125.233 79.8333 124.4 79.3333 123.4 78.4C122.333 77.4667 121.7 76.6667 121.5 76C121.367 75.2667 121.567 74.2333 122.1 72.9C122.567 71.8333 123.167 71.4667 123.9 71.8C124.633 72.0667 125.6 72.2667 126.8 72.4ZM143.9 73.1C145.9 74.3 147.167 75.4667 147.7 76.6C148.3 77.6667 148.333 79.3333 147.8 81.6C147.467 82.9333 146.933 83.8 146.2 84.2C145.533 84.5333 144.7 84.6667 143.7 84.6C142.7 84.5333 141.533 84.5667 140.2 84.7C138.467 84.8333 137.133 84.8333 136.2 84.7C135.267 84.5 134.5 83.6 133.9 82C133.3 80.4667 133.367 79.4 134.1 78.8C134.833 78.2 135.8 77.3667 137 76.3C138 75.5 138.8 74.7333 139.4 74C140 73.2 140.633 72.7 141.3 72.5C141.967 72.2333 142.833 72.4333 143.9 73.1ZM159.6 73.5L159 74.7L157.9 74.2L157.7 73L158.8 72.6L159.6 73.5ZM168.2 73.6L168.7 74.6L167.8 75.2L167 74.7L167.4 74L168.2 73.6ZM161.7 74.4L161.6 75.5H160.5L159.9 74.6L160.7 73.8L161.7 74.4ZM165.2 74.5L166.1 75.2L165.2 76.2L163.8 75.8L164 74.3L165.2 74.5ZM155.7 75.4C156.167 75.8667 156.3 76.4 156.1 77C155.833 77.5333 155.367 77.7667 154.7 77.7C154.233 77.6333 153.867 77.5667 153.6 77.5C153.4 77.4333 153.233 77.2 153.1 76.8C153.033 76.3333 153.067 76 153.2 75.8C153.333 75.6 153.633 75.3667 154.1 75.1C154.433 74.9 154.7 74.8333 154.9 74.9C155.1 74.9667 155.367 75.1333 155.7 75.4ZM120.8 75.6L120.6 76.4L119.9 76.2L119.3 75.5L120.2 74.9L120.8 75.6ZM169.2 76.4L169.4 77.3L168.6 78.1L167.9 77.2L168 75.9L169.2 76.4ZM150.3 76.1L150.4 77.3L149.8 78L148.7 77.5L149.1 76.4L150.3 76.1ZM163.3 76.3L163.6 77.2L162.9 77.7L162.3 77.3V76.3H163.3ZM158.4 76.7L159.2 77.1L158.9 78L157.9 77.9L157.7 77.1L158.4 76.7ZM161 77.5L161.6 78.2L161 78.8L160.4 78.7L160.2 77.9L161 77.5ZM152.9 78.5L153.1 79.4L152.3 79.9L151.4 79.2L152.1 78.5H152.9ZM123.2 79.6L122.7 80.4H121.9L121.4 79.6L122.3 78.8L123.2 79.6ZM166.8 79.2C167.8 79.6 168.4 80.0667 168.6 80.6C168.8 81.1333 168.867 81.9333 168.8 83C168.733 83.9333 168.467 84.5333 168 84.8C167.533 85 166.867 85.2 166 85.4C165.067 85.6667 164.333 85.8333 163.8 85.9C163.267 85.9 162.733 85.5 162.2 84.7C161.667 83.8333 161.467 83.1333 161.6 82.6C161.733 82.0667 162.133 81.4333 162.8 80.7C163.467 79.9 164.033 79.3667 164.5 79.1C165.033 78.7667 165.8 78.8 166.8 79.2ZM159.9 81.2C159.967 81.8667 159.8 82.2667 159.4 82.4C159 82.5333 158.533 82.7333 158 83C157.4 83.2 156.933 83.4 156.6 83.6C156.267 83.8 155.867 83.6667 155.4 83.2C155 82.6667 154.833 82.2333 154.9 81.9C154.967 81.5 155.167 81 155.5 80.4C155.833 79.8667 156.133 79.4667 156.4 79.2C156.667 78.9333 157.133 78.9 157.8 79.1C158.533 79.2333 159.033 79.4333 159.3 79.7C159.633 79.9667 159.833 80.4667 159.9 81.2ZM170.8 79.8L171.8 80.3L171 81.1L170.1 81.4L169.9 80.3L170.8 79.8ZM128.8 80.1L129.2 80.7L128.9 81.3L128.3 81L128.1 80.3L128.8 80.1ZM150.1 80.1L151 80.9L150.3 82L149 81.6V80.3L150.1 80.1ZM127.1 81.4C127.567 81.6 127.8 81.8333 127.8 82.1C127.867 82.3667 127.867 82.7667 127.8 83.3C127.733 83.9667 127.333 84.4 126.6 84.6C126.133 84.6667 125.767 84.7 125.5 84.7C125.3 84.7 125.067 84.5 124.8 84.1C124.533 83.6333 124.367 83.2667 124.3 83C124.3 82.7333 124.5 82.4 124.9 82C125.233 81.5333 125.533 81.2667 125.8 81.2C126.133 81.0667 126.567 81.1333 127.1 81.4ZM130.4 81.7L131 82.2L130.7 82.9L130.1 82.8L129.7 82.2L130.4 81.7ZM173.8 82.4L174.4 83.4L173.7 83.9H172.9L173 83.1L173.8 82.4ZM176.5 82.8L176.8 83.8L176.5 84.6L175.4 84.4L175.5 83.3L176.5 82.8ZM153.6 83.3C153.867 83.6333 153.933 83.9 153.8 84.1C153.667 84.3 153.5 84.5667 153.3 84.9C152.967 85.2333 152.733 85.5667 152.6 85.9C152.467 86.1667 152.167 86.2333 151.7 86.1C151.167 85.9 150.767 85.7 150.5 85.5C150.3 85.2333 150.2 84.8 150.2 84.2C150.2 83.6667 150.367 83.4 150.7 83.4C151.1 83.3333 151.533 83.2333 152 83.1C152.4 82.9667 152.7 82.9 152.9 82.9C153.167 82.8333 153.4 82.9667 153.6 83.3ZM171.3 84L171.1 84.8L170.1 84.7L170.3 83.9L170.8 83.6L171.3 84ZM130.1 84.9V85.7L129.4 84.8L130.1 84.9ZM173.8 85.4L174.8 86.4L174.1 87.6L173.1 87V86.2L173.8 85.4ZM149 85.8L148.6 86.3L147.8 86.5V85.6L149 85.8ZM133 86.1L133.9 87.3L132.9 88.3L131.9 87.8L132 86.8L133 86.1ZM170.2 87.5C170.267 87.9 170.3 88.2 170.3 88.4C170.3 88.6 170.167 88.7667 169.9 88.9C169.433 89.1667 169.067 89.3667 168.8 89.5C168.533 89.5667 168.233 89.4333 167.9 89.1C167.5 88.7 167.3 88.3667 167.3 88.1C167.367 87.8333 167.533 87.4667 167.8 87C168 86.6 168.2 86.3667 168.4 86.3C168.6 86.2333 168.933 86.2333 169.4 86.3C169.733 86.3667 169.933 86.5 170 86.7C170.067 86.9 170.133 87.1667 170.2 87.5ZM162.9 87L162.4 87.9L161.6 87.8L161.2 86.9L162 86.7L162.9 87ZM154.3 87.9C154.767 88.3 154.9 88.7667 154.7 89.3C154.5 89.9 154.067 90.1667 153.4 90.1C152.8 90.0333 152.4 89.7 152.2 89.1C152.133 88.7 152.1 88.4 152.1 88.2C152.167 88 152.367 87.7667 152.7 87.5C153.033 87.3 153.3 87.2667 153.5 87.4C153.7 87.4667 153.967 87.6333 154.3 87.9ZM150.6 87.5L150.3 88.6L149.5 88.3L149.8 87.4L150.6 87.5ZM158.6 87.4C159.067 87.4 159.4 87.7333 159.6 88.4C159.733 89.0667 159.6 89.5333 159.2 89.8C158.667 90.1333 158.167 90.1 157.7 89.7C157.233 89.3667 157.133 88.9 157.4 88.3C157.6 87.7 158 87.4 158.6 87.4ZM129.9 87.8L130.7 88.4L130.1 89L129.4 88.9L129.2 88.2L129.9 87.8ZM148.2 88.2L148.7 89.1L147.8 89.3L147.1 88.9L147.4 88L148.2 88.2ZM137.7 88.9C138.1 89.1 138.333 89.3333 138.4 89.6C138.467 89.8 138.467 90.1333 138.4 90.6C138.333 91.1333 137.933 91.4667 137.2 91.6C136.8 91.6667 136.467 91.7 136.2 91.7C136 91.7 135.8 91.5333 135.6 91.2C135.333 90.7333 135.2 90.3667 135.2 90.1C135.2 89.8333 135.367 89.5333 135.7 89.2C136.233 88.6 136.9 88.5 137.7 88.9ZM145.4 89.2C145.533 89.6 145.6 89.9333 145.6 90.2C145.667 90.4 145.5 90.6333 145.1 90.9C144.767 91.1667 144.467 91.3 144.2 91.3C144 91.2333 143.733 91.1 143.4 90.9C143.067 90.7 142.9 90.5 142.9 90.3C142.9 90.1 142.933 89.8333 143 89.5C143.133 89.0333 143.467 88.7667 144 88.7C144.4 88.7 144.7 88.7 144.9 88.7C145.1 88.7 145.267 88.8667 145.4 89.2ZM167.1 89.5L167.3 90.3L166.6 91.1L165.9 90.3L166 89.3L167.1 89.5ZM164.2 89.8C164.667 89.9333 164.9 90.3 164.9 90.9C164.9 91.4333 164.633 91.8 164.1 92C163.767 92.0667 163.5 92.1 163.3 92.1C163.1 92.1 162.867 91.9667 162.6 91.7C162.267 91.1667 162.333 90.6333 162.8 90.1C163.133 89.6333 163.6 89.5333 164.2 89.8ZM133.6 89.8L134.3 90.6L133.6 91.3L132.8 91.2L132.7 90.3L133.6 89.8ZM160.2 91.1L160.5 92.3L159.4 92.9L158.3 92.2L159.2 91.4L160.2 91.1ZM156.7 91.7L156.8 92.7L155.5 92.1L155.9 91.3L156.7 91.7ZM147.9 92.4L147.5 93.2L146.3 93.5V92.3L147.2 91.6L147.9 92.4ZM153.1 91.9L153.2 92.5L152.5 92.8L152.2 92.2L152.5 91.6L153.1 91.9ZM141.6 92.8L141.2 93.5H140.1L140.3 92.3L141.2 92L141.6 92.8ZM150.1 92.4L150.9 93L150.5 93.9L149.7 93.7L149.3 92.9L150.1 92.4ZM144.4 92.5L145.2 92.9L144.6 93.6L143.9 93.4L143.7 92.7L144.4 92.5Z" fill="url(#paint0_radial_4_18)"/>
<path d="M28.96 61.96L21.28 44.6L13.68 61.96L8.16 46H0.16L12.28 75.64L21.28 58.76L30.32 75.64L42.44 46H34.4L28.96 61.96ZM50.0572 74H64.1772V68.44H50.0572V74ZM50.0572 51.56H64.1772V46H50.0572V51.56ZM50.0572 62H63.3772V56.56H50.0572V62ZM45.5772 46V74H52.0572V46H45.5772ZM74.1588 74H88.2788V68.44H74.1588V74ZM74.1588 51.56H88.2788V46H74.1588V51.56ZM74.1588 62H87.4788V56.56H74.1588V62ZM69.6788 46V74H76.1588V46H69.6788ZM93.7803 46V74H100.74V46H93.7803ZM103.78 74C106.847 74 109.5 73.4267 111.74 72.28C113.98 71.1333 115.714 69.52 116.94 67.44C118.167 65.3333 118.78 62.8533 118.78 60C118.78 57.12 118.167 54.64 116.94 52.56C115.714 50.48 113.98 48.8667 111.74 47.72C109.5 46.5733 106.847 46 103.78 46H98.2603V52H103.54C104.607 52 105.634 52.1333 106.62 52.4C107.634 52.6667 108.514 53.1067 109.26 53.72C110.034 54.3333 110.647 55.16 111.1 56.2C111.554 57.2133 111.78 58.48 111.78 60C111.78 61.52 111.554 62.8 111.1 63.84C110.647 64.8533 110.034 65.6667 109.26 66.28C108.514 66.8933 107.634 67.3333 106.62 67.6C105.634 67.8667 104.607 68 103.54 68H98.2603V74H103.78ZM123.116 46V74H129.996V46H123.116Z" fill="#02FFB3"/>
<path d="M139.729 70.975C138.726 69.8139 137.922 68.5208 137.315 67.0958C136.708 65.6708 136.325 64.1667 136.167 62.5833H139.413C139.571 63.7444 139.861 64.8459 140.283 65.8877C140.706 66.9306 141.26 67.8875 141.946 68.7583L139.729 70.975ZM136.167 59.4167C136.378 57.8333 136.774 56.3292 137.354 54.9042C137.935 53.4792 138.726 52.1861 139.729 51.025L141.946 53.2417C141.26 54.1125 140.706 55.0688 140.283 56.1107C139.861 57.1536 139.571 58.2556 139.413 59.4167H136.167ZM150.338 76.7542C148.754 76.5958 147.257 76.2132 145.846 75.6062C144.433 74.9993 143.133 74.2208 141.946 73.2708L144.163 70.975C145.086 71.6611 146.056 72.2285 147.073 72.6771C148.088 73.1257 149.176 73.4292 150.338 73.5875V76.7542ZM144.242 51.025L141.946 48.7292C143.133 47.7792 144.433 47.0007 145.846 46.3937C147.257 45.7868 148.781 45.4042 150.417 45.2458V48.4125C149.229 48.5708 148.121 48.8743 147.092 49.3229C146.063 49.7715 145.113 50.3389 144.242 51.025ZM148.042 68.125V53.875L159.125 61L148.042 68.125ZM153.583 76.7542V73.5875C156.776 73.1389 159.422 71.7271 161.521 69.3521C163.618 66.9771 164.667 64.1931 164.667 61C164.667 57.8069 163.618 55.0229 161.521 52.6479C159.422 50.2729 156.776 48.8611 153.583 48.4125V45.2458C157.647 45.6944 161.038 47.4097 163.756 50.3917C166.474 53.3736 167.833 56.9097 167.833 61C167.833 65.0903 166.474 68.6264 163.756 71.6083C161.038 74.5903 157.647 76.3056 153.583 76.7542Z" fill="#02FFB3"/>
<defs>
<radialGradient id="paint0_radial_4_18" cx="0" cy="0" r="1" gradientUnits="userSpaceOnUse" gradientTransform="translate(151.5 59.5) rotate(90) scale(59.5 37.5)">
<stop offset="0.291667" stop-color="#03FF4A" stop-opacity="0.6"/>
<stop offset="1" stop-color="#CDCDCD" stop-opacity="0"/>
</radialGradient>
</defs>
</svg>
